<!-- Files in the public directory are served at the root path. -->
<!-- This is only true for chrome -->

<svg fill="#1663f1" height="200px" width="200px" version="1.1" id="Layer_1" xmlns="http://www.w3.org/2000/svg" xmlns:xlink="http://www.w3.org/1999/xlink" viewBox="0 0 512 512" xml:space="preserve" stroke="#1663f1"><g id="SVGRepo_bgCarrier" stroke-width="0"></g><g id="SVGRepo_tracerCarrier" stroke-linecap="round" stroke-linejoin="round"></g><g id="SVGRepo_iconCarrier"> <g> <g> <path d="M490.667,128h-64V64c0-11.776-9.536-21.333-21.333-21.333H234.667V21.333C234.667,9.557,225.131,0,213.333,0 C201.536,0,192,9.557,192,21.333v21.333H21.333C9.536,42.667,0,52.224,0,64v341.333c0,11.776,9.536,21.333,21.333,21.333h64v64 c0,11.776,9.536,21.333,21.333,21.333h384c11.797,0,21.333-9.557,21.333-21.333V149.333C512,137.557,502.464,128,490.667,128z M277.333,128H320c11.797,0,21.333,9.557,21.333,21.333s-9.536,21.333-21.333,21.333h-42.667 c-11.797,0-21.333-9.557-21.333-21.333S265.536,128,277.333,128z M320,213.333c11.797,0,21.333,9.557,21.333,21.333 S331.797,256,320,256h-85.333c-11.797,0-21.333-9.557-21.333-21.333s9.536-21.333,21.333-21.333H320z M341.333,320 c0,11.776-9.536,21.333-21.333,21.333h-21.333c-11.797,0-21.333-9.557-21.333-21.333s9.536-21.333,21.333-21.333H320 C331.797,298.667,341.333,308.224,341.333,320z M106.667,128h106.667c11.797,0,21.333,9.557,21.333,21.333 s-9.536,21.333-21.333,21.333H106.667c-11.797,0-21.333-9.557-21.333-21.333S94.869,128,106.667,128z M106.667,213.333h64 c11.797,0,21.333,9.557,21.333,21.333S182.464,256,170.667,256h-64c-11.797,0-21.333-9.557-21.333-21.333 S94.869,213.333,106.667,213.333z M85.333,320c0-11.776,9.536-21.333,21.333-21.333h128c11.797,0,21.333,9.557,21.333,21.333 s-9.536,21.333-21.333,21.333h-128C94.869,341.333,85.333,331.776,85.333,320z M469.333,469.333H128v-42.667h277.333 c11.797,0,21.333-9.557,21.333-21.333V170.667h42.667V469.333z"></path> </g> </g> </g></svg>